<?xml version="1.0" encoding="UTF-8"?>
<svg xmlns="http://www.w3.org/2000/svg" xmlns:xlink="http://www.w3.org/1999/xlink" width="256px" height="256px" viewBox="0 0 256 255" version="1.1">
<g id="surface1">
<path style=" stroke:none;fill-rule:nonzero;fill:rgb(94.901961%,23.137255%,41.568628%);fill-opacity:1;" d="M 128 253.804688 C 198.03125 253.804688 254.800781 197.257812 254.800781 127.5 C 254.800781 57.742188 198.03125 1.195312 128 1.195312 C 57.96875 1.195312 1.199219 57.742188 1.199219 127.5 C 1.199219 197.257812 57.96875 253.804688 128 253.804688 Z M 128 253.804688 "/>
<path style=" stroke:none;fill-rule:nonzero;fill:rgb(0%,0%,0%);fill-opacity:1;" d="M 128 234.617188 C 188.1875 234.617188 236.980469 186.660156 236.980469 127.5 C 236.980469 68.339844 188.1875 20.382812 128 20.382812 C 67.8125 20.382812 19.019531 68.339844 19.019531 127.5 C 19.019531 186.660156 67.8125 234.617188 128 234.617188 Z M 128 234.617188 "/>
<path style=" stroke:none;fill-rule:nonzero;fill:rgb(100%,100%,100%);fill-opacity:1;" d="M 64.988281 155.984375 C 62.972656 155.984375 60.851562 155.828125 58.625 155.511719 C 56.398438 155.195312 54.59375 154.769531 53.214844 154.242188 C 50.988281 153.34375 49.875 151.839844 49.875 149.726562 C 49.875 148.195312 50.328125 146.980469 51.226562 146.082031 C 52.183594 145.132812 53.667969 144.65625 55.683594 144.65625 C 57.058594 144.65625 58.730469 144.84375 60.691406 145.210938 C 62.652344 145.582031 64.378906 145.765625 65.863281 145.765625 C 69.148438 145.765625 71.507812 145.34375 72.941406 144.5 C 74.371094 143.652344 75.089844 141.9375 75.089844 139.347656 C 75.089844 137.816406 74.53125 136.523438 73.417969 135.46875 C 72.355469 134.410156 70.210938 133.40625 66.976562 132.457031 C 61.089844 130.714844 56.820312 128.546875 54.171875 125.960938 C 51.574219 123.371094 50.273438 120.019531 50.273438 115.898438 C 50.273438 112.308594 51.070312 109.269531 52.660156 106.789062 C 54.304688 104.253906 56.558594 102.324219 59.421875 101.003906 C 62.28125 99.683594 65.542969 99.023438 69.203125 99.023438 C 73.496094 99.023438 77.050781 99.605469 79.859375 100.765625 C 82.085938 101.613281 83.199219 103.117188 83.199219 105.28125 C 83.199219 106.816406 82.722656 108.054688 81.769531 109.007812 C 80.867188 109.90625 79.410156 110.351562 77.394531 110.351562 C 76.070312 110.351562 74.636719 110.222656 73.101562 109.957031 C 71.5625 109.640625 70.050781 109.480469 68.566406 109.480469 C 66.285156 109.480469 64.5625 109.878906 63.398438 110.671875 C 62.230469 111.460938 61.648438 112.78125 61.648438 114.632812 C 61.648438 116.320312 62.46875 117.851562 64.113281 119.226562 C 65.757812 120.597656 68.777344 121.945312 73.179688 123.265625 C 78.214844 124.746094 81.691406 126.753906 83.597656 129.289062 C 85.507812 131.769531 86.460938 134.9375 86.460938 138.792969 C 86.460938 144.390625 84.578125 148.671875 80.816406 151.628906 C 77.101562 154.53125 71.828125 155.984375 64.988281 155.984375 Z M 105.867188 150.679688 C 105.867188 154.214844 104.011719 155.984375 100.300781 155.984375 C 98.5 155.984375 97.066406 155.535156 96.007812 154.640625 C 94.945312 153.742188 94.417969 152.421875 94.417969 150.679688 L 94.417969 117.957031 C 94.417969 111.726562 95.742188 107.027344 98.394531 103.855469 C 101.097656 100.636719 105.074219 99.023438 110.324219 99.023438 C 114.195312 99.023438 117.402344 99.816406 119.945312 101.402344 C 122.492188 102.984375 124.1875 105.257812 125.035156 108.214844 C 125.886719 105.257812 127.582031 102.984375 130.125 101.402344 C 132.671875 99.816406 135.933594 99.023438 139.910156 99.023438 C 145.316406 99.023438 149.320312 100.582031 151.917969 103.699219 C 154.515625 106.761719 155.816406 111.515625 155.816406 117.957031 L 155.816406 149.886719 C 155.816406 152.050781 155.390625 153.609375 154.542969 154.558594 C 153.695312 155.511719 152.265625 155.984375 150.25 155.984375 C 148.234375 155.984375 146.75 155.511719 145.796875 154.558594 C 144.839844 153.554688 144.363281 151.996094 144.363281 149.886719 L 144.363281 117.324219 C 144.363281 112.097656 142.109375 109.480469 137.601562 109.480469 C 135.324219 109.480469 133.625 110.246094 132.511719 111.777344 C 131.398438 113.257812 130.84375 115.632812 130.84375 118.910156 L 130.84375 149.09375 C 130.84375 151.257812 130.417969 152.816406 129.570312 153.765625 C 128.722656 154.71875 127.289062 155.195312 125.273438 155.195312 C 123.261719 155.195312 121.777344 154.71875 120.820312 153.765625 C 119.867188 152.765625 119.390625 151.207031 119.390625 149.09375 L 119.390625 118.910156 C 119.390625 112.625 117.136719 109.480469 112.628906 109.480469 C 108.121094 109.480469 105.867188 112.097656 105.867188 117.324219 Z M 188.046875 155.90625 C 182.320312 155.90625 177.761719 154.851562 174.367188 152.738281 C 171.027344 150.625 168.613281 147.507812 167.128906 143.390625 C 165.699219 139.21875 164.984375 134.039062 164.984375 127.863281 C 164.984375 121.683594 165.699219 116.453125 167.128906 112.175781 C 168.613281 107.84375 171.027344 104.570312 174.367188 102.351562 C 177.761719 100.132812 182.320312 99.023438 188.046875 99.023438 C 190.117188 99.023438 192.128906 99.210938 194.09375 99.578125 C 196.105469 99.949219 197.75 100.609375 199.023438 101.558594 C 200.347656 102.511719 201.011719 103.882812 201.011719 105.679688 C 201.011719 107 200.535156 108.109375 199.578125 109.007812 C 198.625 109.90625 197.085938 110.351562 194.96875 110.351562 C 193.800781 110.351562 192.5 110.222656 191.070312 109.957031 C 189.636719 109.640625 187.96875 109.480469 186.058594 109.480469 C 182.347656 109.480469 179.882812 110.988281 178.664062 113.996094 C 177.496094 116.957031 176.914062 121.578125 176.914062 127.863281 C 176.914062 134.148438 177.679688 138.664062 179.21875 141.410156 C 180.757812 144.101562 183.035156 145.449219 186.058594 145.449219 C 192.421875 145.449219 195.601562 142.78125 195.601562 137.449219 C 195.601562 135.019531 195.972656 133.355469 196.714844 132.457031 L 191.148438 132.535156 C 189.507812 132.589844 188.234375 132.269531 187.332031 131.585938 C 186.484375 130.898438 186.058594 129.710938 186.058594 128.019531 C 186.058594 126.328125 186.484375 125.140625 187.332031 124.453125 C 188.234375 123.769531 189.507812 123.425781 191.148438 123.425781 L 199.578125 123.425781 C 201.4375 123.425781 202.8125 123.664062 203.714844 124.136719 C 204.617188 124.5625 205.199219 125.484375 205.464844 126.910156 C 205.785156 128.285156 205.941406 130.371094 205.941406 133.167969 C 205.941406 138.082031 205.4375 142.226562 204.429688 145.609375 C 203.425781 148.988281 201.621094 151.550781 199.023438 153.292969 C 196.476562 155.035156 192.820312 155.90625 188.046875 155.90625 Z M 188.046875 155.90625 "/>
</g>
</svg>
