<svg width="412" height="412" viewBox="0 0 412 412" fill="none" xmlns="http://www.w3.org/2000/svg">
<path d="M206 410.07C318.705 410.07 410.07 318.704 410.07 206C410.07 93.2949 318.705 1.92969 206 1.92969C93.2952 1.92969 1.92999 93.2949 1.92999 206C1.92999 318.704 93.2952 410.07 206 410.07Z" fill="#F23B6A"/>
<path d="M206 379.07C302.865 379.07 381.39 301.584 381.39 206C381.39 110.416 302.865 32.9297 206 32.9297C109.135 32.9297 30.61 110.416 30.61 206C30.61 301.584 109.135 379.07 206 379.07Z" fill="black"/>
<path d="M104.589 252.024C101.346 252.024 97.933 251.768 94.349 251.256C90.765 250.744 87.8637 250.061 85.645 249.208C82.061 247.757 80.269 245.325 80.269 241.912C80.269 239.437 80.9943 237.475 82.445 236.024C83.981 234.488 86.3703 233.72 89.613 233.72C91.8317 233.72 94.5197 234.019 97.677 234.616C100.834 235.213 103.608 235.512 105.997 235.512C111.288 235.512 115.085 234.829 117.389 233.464C119.693 232.099 120.845 229.325 120.845 225.144C120.845 222.669 119.949 220.579 118.157 218.872C116.45 217.165 112.994 215.544 107.789 214.008C98.317 211.192 91.4477 207.693 87.181 203.512C82.9997 199.331 80.909 193.912 80.909 187.256C80.909 181.453 82.189 176.547 84.749 172.536C87.3943 168.44 91.021 165.325 95.629 163.192C100.237 161.059 105.485 159.992 111.373 159.992C118.285 159.992 124.002 160.931 128.525 162.808C132.109 164.173 133.901 166.605 133.901 170.104C133.901 172.579 133.133 174.584 131.597 176.12C130.146 177.571 127.8 178.296 124.557 178.296C122.424 178.296 120.12 178.083 117.645 177.656C115.17 177.144 112.738 176.888 110.349 176.888C106.68 176.888 103.906 177.528 102.029 178.808C100.152 180.088 99.213 182.221 99.213 185.208C99.213 187.939 100.536 190.413 103.181 192.632C105.826 194.851 110.69 197.027 117.773 199.16C125.88 201.549 131.469 204.792 134.541 208.888C137.613 212.899 139.149 218.019 139.149 224.248C139.149 233.293 136.12 240.205 130.061 244.984C124.088 249.677 115.597 252.024 104.589 252.024ZM170.383 243.448C170.383 249.165 167.396 252.024 161.423 252.024C158.522 252.024 156.218 251.299 154.511 249.848C152.804 248.397 151.951 246.264 151.951 243.448V190.584C151.951 180.515 154.084 172.92 158.351 167.8C162.703 162.595 169.103 159.992 177.551 159.992C183.78 159.992 188.943 161.272 193.039 163.832C197.135 166.392 199.866 170.061 201.231 174.84C202.596 170.061 205.327 166.392 209.423 163.832C213.519 161.272 218.767 159.992 225.167 159.992C233.871 159.992 240.314 162.509 244.495 167.544C248.676 172.493 250.767 180.173 250.767 190.584V242.168C250.767 245.667 250.084 248.184 248.719 249.72C247.354 251.256 245.05 252.024 241.807 252.024C238.564 252.024 236.175 251.256 234.639 249.72C233.103 248.099 232.335 245.581 232.335 242.168V189.56C232.335 181.112 228.708 176.888 221.455 176.888C217.786 176.888 215.055 178.125 213.263 180.6C211.471 182.989 210.575 186.829 210.575 192.12V240.888C210.575 244.387 209.892 246.904 208.527 248.44C207.162 249.976 204.858 250.744 201.615 250.744C198.372 250.744 195.983 249.976 194.447 248.44C192.911 246.819 192.143 244.301 192.143 240.888V192.12C192.143 181.965 188.516 176.888 181.263 176.888C174.01 176.888 170.383 181.112 170.383 189.56V243.448ZM302.639 251.896C293.423 251.896 286.084 250.189 280.623 246.776C275.247 243.363 271.364 238.328 268.975 231.672C266.671 224.931 265.519 216.568 265.519 206.584C265.519 196.6 266.671 188.152 268.975 181.24C271.364 174.243 275.247 168.952 280.623 165.368C286.084 161.784 293.423 159.992 302.639 159.992C305.967 159.992 309.21 160.291 312.367 160.888C315.61 161.485 318.255 162.552 320.303 164.088C322.436 165.624 323.503 167.843 323.503 170.744C323.503 172.877 322.735 174.669 321.199 176.12C319.663 177.571 317.188 178.296 313.775 178.296C311.898 178.296 309.807 178.083 307.503 177.656C305.199 177.144 302.511 176.888 299.439 176.888C293.466 176.888 289.498 179.32 287.535 184.184C285.658 188.963 284.719 196.429 284.719 206.584C284.719 216.739 285.956 224.035 288.431 228.472C290.906 232.824 294.575 235 299.439 235C309.679 235 314.799 230.691 314.799 222.072C314.799 218.147 315.396 215.459 316.591 214.008L307.631 214.136C304.986 214.221 302.938 213.709 301.487 212.6C300.122 211.491 299.439 209.571 299.439 206.84C299.439 204.109 300.122 202.189 301.487 201.08C302.938 199.971 304.986 199.416 307.631 199.416H321.199C324.186 199.416 326.404 199.8 327.855 200.568C329.306 201.251 330.244 202.744 330.671 205.048C331.183 207.267 331.439 210.637 331.439 215.16C331.439 223.096 330.628 229.795 329.007 235.256C327.386 240.717 324.484 244.856 320.303 247.672C316.207 250.488 310.319 251.896 302.639 251.896Z" fill="white"/>
</svg>
